<svg t="1719644467665" class="icon" viewBox="0 0 1024 1024" version="1.1" xmlns="http://www.w3.org/2000/svg" p-id="1182" width="64" height="64"><path d="M512 226c157.952 0 286 128.048 286 286S669.952 798 512 798 226 669.952 226 512 354.048 226 512 226z m0 60c-124.816 0-226 101.184-226 226S387.184 738 512 738 738 636.816 738 512 636.816 286 512 286z" p-id="1183" fill="#e6e6e6"></path><path d="M480 64m30 0l4 0q30 0 30 30l0 68q0 30-30 30l-4 0q-30 0-30-30l0-68q0-30 30-30Z" p-id="1184" fill="#e6e6e6"></path><path d="M192 480m0 30l0 4q0 30-30 30l-68 0q-30 0-30-30l0-4q0-30 30-30l68 0q30 0 30 30Z" p-id="1185" fill="#e6e6e6"></path><path d="M251.84 721.328l2.832 2.832c11.712 11.712 11.712 30.72 0 42.432l-48.08 48.08a30 30 0 0 1-42.432 0l-2.832-2.832a30 30 0 0 1 0-42.432l48.08-48.08a30 30 0 0 1 42.432 0zM827.84 193.328l2.832 2.832c11.712 11.712 11.712 30.72 0 42.432l-48.08 48.08a30 30 0 0 1-42.432 0l-2.832-2.832a30 30 0 0 1 0-42.432l48.08-48.08a30 30 0 0 1 42.432 0zM193.328 196.16l2.832-2.832a30 30 0 0 1 42.432 0l48.08 48.08c11.712 11.728 11.712 30.72 0 42.432l-2.832 2.832a30 30 0 0 1-42.432 0l-48.08-48.08a30 30 0 0 1 0-42.432zM737.328 724.16l2.832-2.832a30 30 0 0 1 42.432 0l48.08 48.08c11.712 11.728 11.712 30.72 0 42.432l-2.832 2.832a30 30 0 0 1-42.432 0l-48.08-48.08a30 30 0 0 1 0-42.432zM960 510v4C960 530.576 946.56 544 930 544h-68A30 30 0 0 1 832 514v-4c0-16.576 13.44-30 30-30h68c16.576 0 30 13.44 30 30z" p-id="1186" fill="#e6e6e6"></path><path d="M480 832m30 0l4 0q30 0 30 30l0 68q0 30-30 30l-4 0q-30 0-30-30l0-68q0-30 30-30Z" p-id="1187" fill="#e6e6e6"></path></svg>